<?xml version="1.0" encoding="UTF-8" standalone="no"?>
<svg
   version="1.0"
   width="2626.4839pt"
   height="943.35419pt"
   viewBox="0 0 2626.4839 943.35418"
   preserveAspectRatio="xMidYMid"
   id="svg43"
   xmlns="http://www.w3.org/2000/svg"
   xmlns:svg="http://www.w3.org/2000/svg">
  <defs
     id="defs47">
    <rect
       x="552.495"
       y="1641.517"
       width="2996.5576"
       height="595.96063"
       id="rect207" />
  </defs>
  <g
     transform="matrix(0.11146323,0,0,-0.14379025,40.377512,1654.649)"
     fill="#000000"
     stroke="none"
     id="g41">
    <path
       d="m 8005,11499 c -1406,-45 -2991,-326 -4655,-825 -330,-99 -770,-241 -920,-296 -645,-239 -790,-508 -519,-960 49,-81 154,-224 221,-302 l 34,-39 1,109 c 1,249 83,435 272,617 297,286 814,476 1601,586 766,108 1829,130 3080,66 157,-8 299,-14 315,-14 17,1 -406,45 -940,99 -592,60 -990,104 -1021,114 -118,37 -180,118 -172,226 2,33 8,63 12,67 4,4 129,22 279,40 1764,213 2733,267 3377,187 547,-67 1255,-301 1922,-635 237,-118 355,-183 338,-186 -8,-1 -224,21 -480,50 l -465,52 -77,125 c -43,69 -79,129 -81,133 -8,25 -315,106 -460,121 -56,6 -58,6 -102,-35 -62,-57 -85,-110 -85,-192 0,-97 39,-166 131,-235 11,-8 377,-39 1075,-92 1039,-78 1066,-80 1414,-80 1020,0 1843,-86 2625,-275 722,-173 1205,-416 1561,-786 89,-92 181,-206 233,-287 18,-28 36,-52 40,-52 44,1 585,40 588,43 7,7 -226,225 -336,315 -744,608 -1763,980 -3081,1126 -434,48 -956,76 -1442,76 h -246 l -194,110 c -377,216 -851,445 -1228,595 -709,282 -1272,405 -1987,435 -249,10 -287,10 -628,-1 z"
       id="path29" />
    <path
       d="m 7508,10433 c 12,-2 30,-2 40,0 9,3 -1,5 -23,4 -22,0 -30,-2 -17,-4 z"
       id="path31" />
    <path
       d="m 5035,10345 c 6,-2 61,-17 123,-35 502,-139 839,-413 970,-790 38,-108 61,-222 71,-347 l 7,-98 37,77 c 56,117 72,185 71,318 0,136 -15,196 -80,319 -24,46 -43,85 -42,86 2,2 1184,10 2628,20 1444,9 2632,20 2640,23 15,5 -6294,431 -6385,431 -27,0 -45,-2 -40,-4 z"
       id="path33" />
    <path
       d="m 4270,9859 c -408,-52 -773,-277 -998,-614 -46,-69 -142,-250 -142,-268 0,-5 18,17 39,49 266,398 746,644 1261,645 232,1 411,-32 614,-111 273,-107 526,-306 671,-528 46,-69 40,-41 -13,64 -265,528 -848,838 -1432,763 z"
       id="path35" />
    <path
       d="m 14070,9860 c -484,-67 -885,-353 -1092,-778 -28,-56 -48,-106 -44,-109 3,-4 6,-1 6,5 0,24 154,214 232,287 379,352 948,491 1473,359 344,-87 656,-292 844,-557 30,-42 57,-75 59,-72 2,2 -22,53 -53,113 -198,382 -563,654 -986,737 -99,19 -346,28 -439,15 z"
       id="path37" />
    <path
       d="m 6875,9689 c 26,-42 324,-421 364,-462 94,-98 241,-176 401,-212 57,-13 141,-18 355,-22 255,-4 4245,24 4251,30 1,1 -900,28 -2004,60 -2244,65 -2391,71 -2480,92 -88,21 -173,67 -229,124 -29,29 -87,116 -148,220 l -99,171 h -111 c -60,0 -155,3 -209,7 -84,5 -98,4 -91,-8 z"
       id="path39" />
  </g>
  <text
     xml:space="preserve"
     transform="matrix(0.79704516,0,0,0.8548159,-159.18406,-1113.4253)"
     id="text205"
     style="font-size:440px;font-family:'Arial Rounded MT Bold';-inkscape-font-specification:'Arial Rounded MT Bold, Normal';white-space:pre;shape-inside:url(#rect207);fill:#1a1a1a"><tspan
       x="552.49414"
       y="2127.7759"
       id="tspan896"><tspan
         style="font-family:'Copperplate Gothic Bold';-inkscape-font-specification:'Copperplate Gothic Bold, ';baseline-shift:baseline"
         id="tspan894">Rental4You</tspan></tspan></text>
  <text
     xml:space="preserve"
     style="font-style:normal;font-variant:normal;font-weight:normal;font-stretch:normal;font-size:187.984px;font-family:Cambria;-inkscape-font-specification:Cambria;fill:#1a1a1a;stroke-width:0.881176"
     x="1202.0237"
     y="854.78204"
     id="text631"
     transform="scale(0.94794862,1.0549095)"><tspan
       style="font-style:normal;font-variant:normal;font-weight:normal;font-stretch:normal;font-size:187.984px;font-family:Cambria;-inkscape-font-specification:Cambria;text-align:center;text-anchor:middle;stroke-width:0.881176"
       x="1202.0237"
       y="854.78204"
       id="tspan633">We Support Your Destinations</tspan></text>
</svg>
